<svg xmlns="http://www.w3.org/2000/svg" viewBox="0 0 417.74 380.74"><title>rating-icon</title><g id="Layer_2" data-name="Layer 2"><g id="Layer_1-2" data-name="Layer 1"><path d="M227,286.49H122.5V268.64L229,116.42h18.82V269h31.81v17.53H247.78V343H227ZM142.95,269H227V147.58Z" fill="#2196f3"/><path d="M407.26,210.72c-2-.28-1.92-2-2-3.47a205.05,205.05,0,0,0-8.85-54.65A199.36,199.36,0,0,0,296.82,34.24a190.47,190.47,0,0,0-51.64-17.87,190.39,190.39,0,0,0-39-3.83C162.62,13.27,123.05,26,88,52.25a188.55,188.55,0,0,0-36,35c-3.46,4.43-7,8.84-10.09,13.52a198.23,198.23,0,0,0-5.76,211.56,199,199,0,0,0,52.87,58.43c1,.74,2.15,1.27,3.13,2,2.16,1.65,4.83,3.19,1.77,6.36-.92,1-4.39,2.5-6.54,1q-8.94-6.45-17.21-13.71A207.17,207.17,0,0,1,2.84,245.52a216.93,216.93,0,0,1-.61-66.06,163.11,163.11,0,0,1,6-26.49c.57-1.81.94-3.18-1.34-4.24-2-.95-.91-2.85-.42-4.29A218.36,218.36,0,0,1,32,92.8c15.05-22.39,34-40.95,55.9-56.33a195.7,195.7,0,0,1,33.25-18.34,211.26,211.26,0,0,1,204,18.17A213,213,0,0,1,374,82,215,215,0,0,1,399,123.59c5.07,10.79,8.66,22,11.82,33.44a193.91,193.91,0,0,1,6.87,49.71c0,2.26.38,4.44-3.21,4.51A36.37,36.37,0,0,1,407.26,210.72Z" fill="#2196f3"/><path d="M29.76,209.54c-.34-11.79,1.43-25.19,4.51-38.43.5-2.16,1.08-4-2-4.82-2.12-.56-1.18-2.43-.81-3.79a187,187,0,0,1,8.25-23.56C49.59,115.55,64.4,95.61,82.53,78c1.47-1.43,3.19-4.41,6.06-1.2,1.78,2,2,3.32-.12,5.23a161.83,161.83,0,0,0-19.06,20.43,187.73,187.73,0,0,0-21.12,33.91c-1.05,2.22-.54,3.27,1.62,4.32,5.64,2.75,5.53,2.82,3.24,8.51A165.33,165.33,0,0,0,42,227.09,160.83,160.83,0,0,0,62.2,291.74c9.18,16.35,20.58,31,34.91,43.21,2.33,2,2.58,3.57.46,5.78-5.7,5.93-3.71,7.22-10.75.64q-46.58-43.51-55.59-106.6A184.38,184.38,0,0,1,29.76,209.54Z" fill="#2196f3"/><path d="M378.92,203.13c0,.5,0,1,0,1.49,0,6.5,0,6.29-6.52,6.51-3.89.13-5-1.54-5-5a140.07,140.07,0,0,0-4.52-33.05c-1.79-7-3.54-14-6.25-20.57-17-41.5-45.82-71.62-87.19-89.5a167.38,167.38,0,0,0-42.28-11.57,31.12,31.12,0,0,0-4.84-.17c-4.06,0-5.17-1.12-4.69-5,0-.12.06-.24.07-.37.92-7.2.93-7.23,8.21-6.32C258.61,43.67,288.15,55.42,314,76q43.28,34.56,58.69,87.82A154.75,154.75,0,0,1,378.92,203.13Z" fill="#2196f3"/><path d="M184,44.57c.27,2-1,2.62-2.87,2.9a160.52,160.52,0,0,0-50.7,16.68,198.81,198.81,0,0,0-17.35,10.45A136.66,136.66,0,0,0,95.81,88.18a149.57,149.57,0,0,0-15,15.54c-5.68,7-11.36,14.09-15.84,22-1.38,2.43-2.63,3.5-5.51,1.83-3.25-1.88-1.45-3.66-.35-5.46A175,175,0,0,1,96.91,78.26a170.45,170.45,0,0,1,82.78-37.43C183,40.3,184,41.16,184,44.57Z" fill="#2196f3"/><path d="M120.87,354.14c-1.34,2.25-2.77,4.72-4.26,7.15-4.18,6.8-2.86,6-9.24,2.17-3.18-1.92-6.08-4.31-9.19-6.37-2.08-1.38-2.52-2.8-.91-4.87a85.48,85.48,0,0,0,5.54-7.44c1.15-1.86,3-2.58,5.33-.78,3.52,2.74,7.34,5.11,11,7.64C120,352.19,120.93,352.63,120.87,354.14Z" fill="#2196f3"/><path d="M297.48,343V332.4h8.76V343Z" fill="#2196f3"/><path d="M353,297.48a57.38,57.38,0,0,1-5.34-3.66A18,18,0,0,1,344,290a13.86,13.86,0,0,1-2.1-4.62,26.31,26.31,0,0,1-.66-6.42,18,18,0,0,1,1.92-8.16,21.47,21.47,0,0,1,5.16-6.66A23.47,23.47,0,0,1,356,259.8a26,26,0,0,1,9.42-1.44,37.39,37.39,0,0,1,9.42,1.2,25.29,25.29,0,0,1,8.22,3.72A18.26,18.26,0,0,1,391,279a22.22,22.22,0,0,1-2.7,11.28,19.83,19.83,0,0,1-8.82,7.68,22.8,22.8,0,0,1,11,8,21.43,21.43,0,0,1,4,13,27.34,27.34,0,0,1-2.1,11,21.5,21.5,0,0,1-6,8,26.71,26.71,0,0,1-9.42,4.92,42,42,0,0,1-12.24,1.68,29.66,29.66,0,0,1-9.3-1.56,26,26,0,0,1-8.52-4.68,24.39,24.39,0,0,1-6.18-7.8,23.61,23.61,0,0,1-2.4-10.92,24.61,24.61,0,0,1,3.78-13.5A21.83,21.83,0,0,1,353,297.48Zm13.44,4.08a29.18,29.18,0,0,0-8.16,1.08,18.41,18.41,0,0,0-6.48,3.3,15.19,15.19,0,0,0-4.32,5.64,19.38,19.38,0,0,0-1.56,8.1,17.73,17.73,0,0,0,1.5,7.32,17.34,17.34,0,0,0,4.2,5.82,19.88,19.88,0,0,0,6.6,3.9,25,25,0,0,0,8.7,1.44,21.61,21.61,0,0,0,7.8-1.38,19.18,19.18,0,0,0,6.3-3.9,17.67,17.67,0,0,0,4.2-6,19.2,19.2,0,0,0,1.5-7.68,18,18,0,0,0-1.56-7.74,15.48,15.48,0,0,0-4.32-5.52,18.43,18.43,0,0,0-6.48-3.3A28.3,28.3,0,0,0,366.48,301.56Zm-.36-36.72a22.74,22.74,0,0,0-6.72,1,15.89,15.89,0,0,0-5.46,2.88,13.24,13.24,0,0,0-3.66,4.8,15.66,15.66,0,0,0-1.32,6.6,14.25,14.25,0,0,0,1.5,6.78,13.19,13.19,0,0,0,4,4.62,18.17,18.17,0,0,0,5.76,2.7,25,25,0,0,0,6.72.9,22.45,22.45,0,0,0,6.48-.9,12.7,12.7,0,0,0,5.16-2.94,14.36,14.36,0,0,0,3.42-5.16,20.55,20.55,0,0,0,1.26-7.68q0-6.48-4.2-10T366.12,264.84Z" fill="#2196f3"/></g></g></svg>